<svg width="313" height="63" viewBox="0 0 313 63" fill="none" xmlns="http://www.w3.org/2000/svg">
<path d="M94.9226 53.8462C93.538 56.0514 91.3328 58.1283 88.3071 60.0771C85.2814 61.9746 81.6403 62.9233 77.3838 62.9233C73.5888 62.9233 70.4605 62.1284 67.999 60.5386C65.5374 58.8976 63.7424 56.7693 62.6142 54.1539C61.486 51.5384 60.9219 48.7179 60.9219 45.6922C60.9219 40.4613 61.9732 35.7432 64.0758 31.538C66.2297 27.3328 69.1528 24.0507 72.8452 21.6916C76.5889 19.2813 80.7172 18.0762 85.2301 18.0762C89.4353 18.0762 92.5379 18.9993 94.538 20.8455C96.538 22.6917 97.5381 25.0763 97.5381 27.9995C97.5381 31.7431 96.3073 34.8714 93.8457 37.3843C91.3841 39.8459 88.3584 41.6664 84.7685 42.8459C81.23 44.0254 77.7171 44.6665 74.2299 44.7691C74.1786 48.564 74.7683 51.4359 75.9991 53.3846C77.2812 55.3334 79.0505 56.3078 81.3069 56.3078C83.9224 56.3078 86.1019 55.718 87.8455 54.5385C89.6404 53.359 91.2046 51.8718 92.538 50.0769L94.9226 53.8462ZM82.5377 23.3071C79.871 23.3071 77.871 25.025 76.5376 28.461C75.2555 31.897 74.4863 35.8201 74.2299 40.2305C75.8196 40.1279 77.512 39.6407 79.3069 38.7689C81.1018 37.8458 82.6147 36.5381 83.8455 34.8458C85.0762 33.1534 85.6916 31.179 85.6916 28.9226C85.6916 25.1789 84.6403 23.3071 82.5377 23.3071Z" fill="#1E1E1E"/>
<path d="M4.69241 26.9218C4.48728 26.1525 4.2565 25.614 4.00009 25.3063C3.79495 24.9986 3.48726 24.8448 3.07699 24.8448C2.66672 24.8448 2.30774 24.8961 2.00004 24.9986C1.74363 25.1012 1.46157 25.2294 1.15387 25.3833L0 22.5371C0.307699 22.1268 0.948738 21.5883 1.92312 20.9216C2.8975 20.2037 4.07701 19.5626 5.46166 18.9985C6.8463 18.4344 8.28223 18.1523 9.76944 18.1523C11.9746 18.1523 13.6413 18.5883 14.7696 19.4601C15.8978 20.3319 16.5901 21.614 16.8465 23.3063L19.8466 45.5376L20.7697 53.4608L24.0774 42.9221L31.3853 18.46H42.3855L46.3087 46.8453L46.9241 53.1531L48.7703 50.0761C50.9755 46.6401 52.5909 43.4606 53.6165 40.5374C54.6935 37.6143 55.232 34.6142 55.232 31.5373C55.232 30.7167 55.0268 29.4346 54.6166 27.691C54.2063 25.9474 54.0012 24.5884 54.0012 23.614C54.0012 22.0755 54.5396 20.7934 55.6166 19.7678C56.7448 18.6908 58.232 18.1523 60.0782 18.1523C62.386 18.1523 64.0527 18.9472 65.0783 20.537C66.1553 22.0755 66.6938 24.0243 66.6938 26.3833C66.6938 28.7423 65.745 31.845 63.8475 35.6912C62.0013 39.5374 59.7705 43.3837 57.1551 47.2299C54.5396 51.0761 52.2063 54.1788 50.1549 56.5378L45.4625 62.1533L37.2316 62.5379L35.0008 48.5376L33.8469 38.2297L33.3084 32.5373L31.7699 38.2297L28.6929 46.5376L22.462 61.9994L12.5387 62.6148L9.53867 48.5376L4.69241 26.9218Z" fill="#1E1E1E"/>
<path d="M299.528 47.9254C299.169 50.8999 298.99 52.6948 298.99 53.3102C298.99 54.4897 299.22 55.3358 299.682 55.8487C300.144 56.3102 300.938 56.541 302.067 56.541C303.092 56.541 304.246 56.3102 305.528 55.8487C306.862 55.3358 307.964 54.7205 308.836 54.0025L309.682 56.8487C308.349 58.3359 306.451 59.6949 303.99 60.9257C301.528 62.1565 298.759 62.7719 295.682 62.7719C293.528 62.7719 291.81 62.2334 290.528 61.1565C289.297 60.0283 288.682 58.259 288.682 55.8487C288.682 54.823 288.938 52.4127 289.451 48.6178L292.682 24.7711H288.066L288.913 21.0787L293.528 19.4633C295.067 18.0273 296.887 14.4888 298.99 8.84766H304.759L303.451 19.3094H312.682L311.913 24.7711H302.682L299.528 47.9254Z" fill="#4747D6"/>
<path d="M281.521 29.7684C280.085 27.9735 278.803 26.5376 277.675 25.4606C276.598 24.3324 275.649 23.7683 274.829 23.7683C272.931 23.7683 271.162 24.6401 269.521 26.3837C267.931 28.1274 266.624 30.5633 265.598 33.6916C264.624 36.8199 264.136 40.3328 264.136 44.2303C264.136 48.4868 264.752 51.6151 265.983 53.6151C267.213 55.5639 269.085 56.5382 271.598 56.5382C273.752 56.5382 275.572 56.128 277.06 55.3074C278.598 54.4869 280.085 53.333 281.521 51.8458L283.521 55.2305C282.239 57.128 280.214 58.8716 277.444 60.4614C274.726 61.9999 271.495 62.7691 267.752 62.7691C263.341 62.7691 259.88 61.2307 257.367 58.1537C254.854 55.0254 253.598 50.615 253.598 44.9226C253.598 40.6148 254.495 36.4352 256.29 32.3839C258.085 28.2812 260.752 24.9222 264.29 22.3067C267.829 19.64 272.085 18.3066 277.06 18.3066C278.649 18.3066 280.291 18.4605 281.983 18.7682C283.727 19.0246 285.137 19.4092 286.214 19.9221L283.598 29.9223L281.521 29.7684Z" fill="#4747D6"/>
<path d="M248.8 54.3082C247.467 56.4108 245.287 58.3852 242.261 60.2314C239.287 62.0776 235.825 63.0007 231.877 63.0007C228.184 63.0007 225.133 62.2058 222.723 60.616C220.363 59.0262 218.645 56.9493 217.569 54.3851C216.492 51.8209 215.953 49.026 215.953 46.0003C215.953 40.872 216.979 36.2052 219.03 32C221.133 27.7435 223.979 24.3844 227.569 21.9229C231.159 19.4613 235.159 18.2305 239.569 18.2305C243.518 18.2305 246.441 19.1536 248.338 20.9998C250.287 22.7947 251.262 25.1537 251.262 28.0768C251.262 31.7692 249.928 34.8462 247.261 37.3078C244.595 39.7694 241.39 41.6156 237.646 42.8464C233.902 44.0259 230.364 44.6669 227.03 44.7695C226.928 48.4619 227.517 51.4363 228.8 53.6928C230.133 55.9492 232.133 57.0775 234.8 57.0775C239.21 57.0775 243.21 55.0261 246.8 50.9235L248.8 54.3082ZM237.261 22.9998C234.236 22.9998 231.851 24.8204 230.107 28.4615C228.364 32.1026 227.338 36.1539 227.03 40.6156C229.03 40.513 231.133 39.9745 233.338 39.0002C235.595 38.0258 237.466 36.6668 238.954 34.9231C240.492 33.1282 241.261 31.0769 241.261 28.7692C241.261 26.923 240.902 25.5127 240.184 24.5383C239.518 23.5126 238.543 22.9998 237.261 22.9998Z" fill="#4747D6"/>
<path d="M206.583 54.3089C206.532 54.514 206.506 54.7961 206.506 55.155C206.506 56.4371 206.967 57.0782 207.891 57.0782C208.352 57.0782 208.839 56.95 209.352 56.6935C209.916 56.4371 210.66 55.8987 211.583 55.0781L212.583 57.4628C211.762 58.6423 210.557 59.8218 208.968 61.0013C207.378 62.1808 205.326 62.7706 202.814 62.7706C200.865 62.7706 199.275 62.386 198.044 61.6167C196.813 60.7962 196.172 59.5398 196.121 57.8474C196.121 57.6423 196.224 56.7192 196.429 55.0781L203.121 5.92321L198.275 4.38471L198.967 1.5385L212.045 0L213.814 1.00002L206.583 54.3089Z" fill="#4747D6"/>
<path d="M185.458 54.3089C185.407 54.514 185.381 54.7961 185.381 55.155C185.381 56.4371 185.842 57.0782 186.766 57.0782C187.227 57.0782 187.714 56.95 188.227 56.6935C188.791 56.4371 189.535 55.8987 190.458 55.0781L191.458 57.4628C190.637 58.6423 189.432 59.8218 187.843 61.0013C186.253 62.1808 184.201 62.7706 181.689 62.7706C179.74 62.7706 178.15 62.386 176.919 61.6167C175.688 60.7962 175.047 59.5398 174.996 57.8474C174.996 57.6423 175.099 56.7192 175.304 55.0781L181.996 5.92321L177.15 4.38471L177.842 1.5385L190.92 0L192.689 1.00002L185.458 54.3089Z" fill="#4747D6"/>
<path d="M154.083 18.2305C159.416 18.2305 163.493 19.7946 166.314 22.9229C169.134 25.9999 170.545 30.4359 170.545 36.2309C170.545 41.0002 169.57 45.4362 167.622 49.5388C165.673 53.6415 162.929 56.9236 159.391 59.3852C155.852 61.7955 151.801 63.0007 147.237 63.0007C141.903 63.0007 137.826 61.4365 135.006 58.3083C132.236 55.1287 130.852 50.6158 130.852 44.7695C130.852 39.9489 131.8 35.5129 133.698 31.4615C135.647 27.4102 138.39 24.205 141.929 21.8459C145.467 19.4356 149.519 18.2305 154.083 18.2305ZM152.775 23.0767C150.416 23.0767 148.416 24.1537 146.775 26.3076C145.134 28.4102 143.903 31.1025 143.083 34.3847C142.313 37.6668 141.929 41.0258 141.929 44.4618C141.929 49.3337 142.467 52.8979 143.544 55.1544C144.672 57.4108 146.416 58.539 148.775 58.539C151.083 58.539 153.032 57.4621 154.621 55.3082C156.211 53.1543 157.391 50.4107 158.16 47.0773C158.929 43.7438 159.314 40.3335 159.314 36.8463C159.314 31.9744 158.775 28.4615 157.698 26.3076C156.673 24.1537 155.032 23.0767 152.775 23.0767Z" fill="#4747D6"/>
<path d="M125.467 29.7684C124.031 27.9735 122.749 26.5376 121.62 25.4606C120.543 24.3324 119.595 23.7683 118.774 23.7683C116.877 23.7683 115.107 24.6401 113.466 26.3837C111.877 28.1274 110.569 30.5633 109.543 33.6916C108.569 36.8199 108.082 40.3328 108.082 44.2303C108.082 48.4868 108.697 51.6151 109.928 53.6151C111.159 55.5639 113.03 56.5382 115.543 56.5382C117.697 56.5382 119.518 56.128 121.005 55.3074C122.544 54.4869 124.031 53.333 125.467 51.8458L127.467 55.2305C126.185 57.128 124.159 58.8716 121.39 60.4614C118.672 61.9999 115.441 62.7691 111.697 62.7691C107.287 62.7691 103.825 61.2307 101.312 58.1537C98.7994 55.0254 97.543 50.615 97.543 44.9226C97.543 40.6148 98.4404 36.4352 100.235 32.3839C102.03 28.2812 104.697 24.9222 108.236 22.3067C111.774 19.64 116.031 18.3066 121.005 18.3066C122.595 18.3066 124.236 18.4605 125.928 18.7682C127.672 19.0246 129.082 19.4092 130.159 19.9221L127.544 29.9223L125.467 29.7684Z" fill="#4747D6"/>
</svg>
