<svg width="257" height="52" viewBox="0 0 257 52" fill="none" xmlns="http://www.w3.org/2000/svg">
<path d="M77.8858 44.1812C76.7497 45.9905 74.9403 47.6947 72.4577 49.2936C69.9752 50.8505 66.9877 51.6289 63.4952 51.6289C60.3815 51.6289 57.8147 50.9767 55.795 49.6723C53.7753 48.3258 52.3025 46.5796 51.3768 44.4337C50.4511 42.2877 49.9883 39.9734 49.9883 37.4908C49.9883 33.1989 50.8509 29.3278 52.5761 25.8774C54.3433 22.427 56.7417 19.7341 59.7713 17.7985C62.843 15.8209 66.2303 14.832 69.9331 14.832C73.3835 14.832 75.9291 15.5894 77.5702 17.1042C79.2112 18.619 80.0317 20.5756 80.0317 22.9741C80.0317 26.0457 79.0219 28.6125 77.0021 30.6743C74.9824 32.694 72.4998 34.1877 69.5544 35.1555C66.651 36.1233 63.7687 36.6493 60.9074 36.7334C60.8654 39.8472 61.3492 42.2035 62.3591 43.8025C63.411 45.4014 64.8627 46.2009 66.7141 46.2009C68.8601 46.2009 70.6484 45.717 72.079 44.7492C73.5518 43.7814 74.8351 42.5612 75.9292 41.0885L77.8858 44.1812ZM67.724 19.1239C65.536 19.1239 63.8949 20.5336 62.8009 23.3528C61.749 26.172 61.1178 29.3909 60.9074 33.0096C62.2118 32.9254 63.6004 32.5257 65.0731 31.8104C66.5458 31.053 67.7871 29.98 68.797 28.5914C69.8069 27.2029 70.3118 25.5829 70.3118 23.7315C70.3118 20.6598 69.4492 19.1239 67.724 19.1239Z" fill="white"/>
<path d="M3.8501 22.0898C3.68179 21.4586 3.49244 21.0168 3.28206 20.7644C3.11375 20.5119 2.86128 20.3857 2.52466 20.3857C2.18804 20.3857 1.89349 20.4277 1.64103 20.5119C1.43064 20.5961 1.19921 20.7012 0.946747 20.8275L0 18.4922C0.252466 18.1555 0.778436 17.7137 1.57791 17.1667C2.37739 16.5776 3.34517 16.0517 4.48127 15.5888C5.61737 15.126 6.79554 14.8945 8.01579 14.8945C9.82513 14.8945 11.1927 15.2522 12.1184 15.9675C13.0441 16.6828 13.6121 17.7348 13.8225 19.1233L16.284 37.364L17.0414 43.865L19.7555 35.218L25.7515 15.147H34.7772L37.9961 38.437L38.501 43.6125L40.0158 41.0879C41.8252 38.2687 43.1506 35.6598 43.9922 33.2614C44.8758 30.863 45.3176 28.4015 45.3176 25.8768C45.3176 25.2036 45.1493 24.1516 44.8127 22.721C44.4761 21.2903 44.3078 20.1753 44.3078 19.3758C44.3078 18.1135 44.7496 17.0615 45.6332 16.22C46.5589 15.3363 47.7792 14.8945 49.294 14.8945C51.1875 14.8945 52.555 15.5467 53.3965 16.8511C54.2802 18.1135 54.722 19.7124 54.722 21.648C54.722 23.5836 53.9435 26.1293 52.3867 29.2851C50.8719 32.4409 49.0415 35.5967 46.8955 38.7526C44.7496 41.9084 42.835 44.4541 41.1519 46.3896L37.3018 50.9972L30.5484 51.3127L28.718 39.8255L27.7712 31.3679L27.3294 26.6973L26.0671 31.3679L23.5424 38.1845L18.43 50.8709L10.288 51.3759L7.82644 39.8255L3.8501 22.0898Z" fill="white"/>
<path d="M245.756 39.321C245.461 41.7615 245.314 43.2342 245.314 43.7391C245.314 44.7069 245.503 45.4012 245.882 45.822C246.261 46.2007 246.913 46.39 247.839 46.39C248.68 46.39 249.627 46.2007 250.679 45.822C251.773 45.4012 252.678 44.8963 253.393 44.3072L254.087 46.6425C252.993 47.8627 251.436 48.9778 249.417 49.9877C247.397 50.9975 245.125 51.5025 242.6 51.5025C240.833 51.5025 239.423 51.0606 238.371 50.177C237.361 49.2513 236.856 47.7996 236.856 45.822C236.856 44.9804 237.067 43.0028 237.488 39.889L240.139 20.3229H236.352L237.046 17.2933L240.833 15.9679C242.095 14.7897 243.589 11.8864 245.314 7.25781H250.048L248.975 15.8417H256.549L255.918 20.3229H248.344L245.756 39.321Z" fill="white"/>
<path d="M230.986 24.4258C229.807 22.9531 228.755 21.7749 227.83 20.8913C226.946 19.9656 226.168 19.5028 225.494 19.5028C223.937 19.5028 222.486 20.2181 221.139 21.6487C219.835 23.0794 218.762 25.078 217.92 27.6448C217.121 30.2115 216.721 33.0938 216.721 36.2917C216.721 39.7842 217.226 42.3509 218.236 43.9919C219.246 45.5909 220.782 46.3904 222.843 46.3904C224.611 46.3904 226.104 46.0538 227.325 45.3805C228.587 44.7073 229.807 43.7605 230.986 42.5403L232.627 45.3174C231.575 46.8743 229.913 48.3049 227.64 49.6093C225.41 50.8716 222.759 51.5028 219.688 51.5028C216.069 51.5028 213.229 50.2405 211.167 47.7158C209.105 45.1491 208.074 41.5304 208.074 36.8598C208.074 33.3253 208.811 29.8959 210.283 26.5718C211.756 23.2056 213.944 20.4495 216.847 18.3035C219.751 16.1155 223.243 15.0215 227.325 15.0215C228.629 15.0215 229.976 15.1477 231.364 15.4002C232.795 15.6106 233.952 15.9262 234.836 16.3469L232.69 24.5521L230.986 24.4258Z" fill="white"/>
<path d="M204.134 44.5606C203.04 46.2858 201.252 47.9058 198.769 49.4206C196.329 50.9354 193.489 51.6928 190.249 51.6928C187.219 51.6928 184.715 51.0406 182.738 49.7362C180.802 48.4317 179.393 46.7276 178.509 44.6237C177.625 42.5198 177.184 40.2266 177.184 37.744C177.184 33.5363 178.025 29.7072 179.708 26.2568C181.433 22.7644 183.769 20.0083 186.714 17.9886C189.66 15.9688 192.942 14.959 196.56 14.959C199.8 14.959 202.199 15.7164 203.756 17.2312C205.355 18.7039 206.154 20.6395 206.154 23.0379C206.154 26.0675 205.06 28.5921 202.872 30.6119C200.684 32.6316 198.054 34.1464 194.982 35.1563C191.911 36.124 189.007 36.65 186.272 36.7342C186.188 39.7638 186.672 42.2043 187.724 44.0557C188.818 45.9071 190.459 46.8328 192.647 46.8328C196.266 46.8328 199.548 45.1497 202.493 41.7835L204.134 44.5606ZM194.667 18.8722C192.184 18.8722 190.228 20.366 188.797 23.3535C187.366 26.341 186.525 29.6651 186.272 33.3259C187.913 33.2417 189.639 32.7999 191.448 32.0004C193.299 31.201 194.835 30.0859 196.055 28.6553C197.318 27.1825 197.949 25.4994 197.949 23.6059C197.949 22.0911 197.654 20.934 197.065 20.1345C196.518 19.293 195.719 18.8722 194.667 18.8722Z" fill="white"/>
<path d="M169.502 44.5602C169.46 44.7285 169.439 44.96 169.439 45.2545C169.439 46.3064 169.817 46.8324 170.575 46.8324C170.953 46.8324 171.353 46.7272 171.774 46.5168C172.237 46.3064 172.847 45.8646 173.604 45.1914L174.425 47.148C173.752 48.1158 172.763 49.0836 171.458 50.0514C170.154 51.0191 168.471 51.503 166.409 51.503C164.81 51.503 163.506 51.1875 162.496 50.5563C161.486 49.883 160.96 48.8521 160.918 47.4636C160.918 47.2953 161.002 46.5379 161.17 45.1914L166.662 4.85997L162.685 3.59764L163.253 1.26233L173.983 0L175.435 0.820515L169.502 44.5602Z" fill="white"/>
<path d="M152.166 44.5602C152.124 44.7285 152.103 44.96 152.103 45.2545C152.103 46.3064 152.481 46.8324 153.239 46.8324C153.618 46.8324 154.017 46.7272 154.438 46.5168C154.901 46.3064 155.511 45.8646 156.268 45.1914L157.089 47.148C156.416 48.1158 155.427 49.0836 154.122 50.0514C152.818 51.0191 151.135 51.503 149.073 51.503C147.474 51.503 146.17 51.1875 145.16 50.5563C144.15 49.883 143.624 48.8521 143.582 47.4636C143.582 47.2953 143.666 46.5379 143.834 45.1914L149.326 4.85997L145.349 3.59764L145.917 1.26233L156.647 0L158.099 0.820515L152.166 44.5602Z" fill="white"/>
<path d="M126.421 14.959C130.797 14.959 134.142 16.2424 136.456 18.8091C138.77 21.3337 139.927 24.9735 139.927 29.7282C139.927 33.6415 139.128 37.2812 137.529 40.6474C135.93 44.0136 133.679 46.7066 130.776 48.7263C127.872 50.7039 124.548 51.6928 120.803 51.6928C116.427 51.6928 113.082 50.4094 110.768 47.8427C108.495 45.2338 107.359 41.531 107.359 36.7342C107.359 32.7789 108.138 29.1391 109.695 25.815C111.294 22.4909 113.545 19.861 116.448 17.9255C119.352 15.9478 122.676 14.959 126.421 14.959ZM125.348 18.9353C123.412 18.9353 121.771 19.819 120.424 21.5862C119.078 23.3114 118.068 25.5205 117.395 28.2134C116.764 30.9064 116.448 33.6625 116.448 36.4817C116.448 40.4791 116.89 43.4035 117.774 45.2549C118.699 47.1063 120.13 48.032 122.066 48.032C123.959 48.032 125.558 47.1484 126.862 45.3811C128.167 43.6139 129.135 41.3627 129.766 38.6277C130.397 35.8926 130.712 33.0944 130.712 30.2332C130.712 26.2358 130.271 23.3535 129.387 21.5862C128.545 19.819 127.199 18.9353 125.348 18.9353Z" fill="white"/>
<path d="M102.943 24.4258C101.764 22.9531 100.712 21.7749 99.7867 20.8913C98.9031 19.9656 98.1246 19.5028 97.4514 19.5028C95.8945 19.5028 94.4428 20.2181 93.0964 21.6487C91.792 23.0794 90.719 25.078 89.8774 27.6448C89.0779 30.2115 88.6782 33.0938 88.6782 36.2917C88.6782 39.7842 89.1831 42.3509 90.193 43.9919C91.2029 45.5909 92.7387 46.3904 94.8005 46.3904C96.5678 46.3904 98.0615 46.0538 99.2818 45.3805C100.544 44.7073 101.764 43.7605 102.943 42.5403L104.584 45.3174C103.532 46.8743 101.87 48.3049 99.5974 49.6093C97.3672 50.8716 94.7163 51.5028 91.6447 51.5028C88.026 51.5028 85.1858 50.2405 83.124 47.7158C81.0622 45.1491 80.0312 41.5304 80.0312 36.8598C80.0312 33.3253 80.7676 29.8959 82.2403 26.5718C83.713 23.2056 85.9011 20.4495 88.8044 18.3035C91.7078 16.1155 95.2002 15.0215 99.2818 15.0215C100.586 15.0215 101.933 15.1477 103.321 15.4002C104.752 15.6106 105.909 15.9262 106.793 16.3469L104.647 24.5521L102.943 24.4258Z" fill="white"/>
</svg>
